# xmcd
#
# Track frame offsets: 
#        150
#        26572
#        51352
#        76092
#        102710
#        133957
#        150735
#        166342
#
# Disc length: 2396 seconds
#
# Revision: 0
# Processed by: cddbd v1.5.1PL0 Copyright (c) Steve Scherf et al.
# Submitted via: ExactAudioCopy v0.95a5
#
DISCID=66095a08
DTITLE=Barbara Mason - Another Man
DYEAR=1999
DGENRE=Soul
TTITLE0=Winter Love
TTITLE1=Easy
TTITLE2=Agony and Ecstasy
TTITLE3=Don't I Ever Cross Your Mind
TTITLE4=Another Man
TTITLE5=Down Too Long
TTITLE6=All Of A Sudden
TTITLE7=Tied Up
EXTD=
EXTT0=
EXTT1=
EXTT2=
EXTT3=
EXTT4=
EXTT5=
EXTT6=
EXTT7=
PLAYORDER=
